<svg xmlns="http://www.w3.org/2000/svg" viewBox="0 0 128 128">
<defs><linearGradient id="g" x1="0" y1="0" x2="1" y2="1"><stop stop-color="#fff4a5"/><stop offset=".28" stop-color="#e7b53f"/><stop offset=".58" stop-color="#8b500b"/><stop offset=".8" stop-color="#f0c95a"/><stop offset="1" stop-color="#4b2504"/></linearGradient><filter id="s"><feDropShadow dx="0" dy="4" stdDeviation="3" flood-color="#000" flood-opacity=".9"/></filter></defs>
<path filter="url(#s)" fill="url(#g)" stroke="#2a1302" stroke-width="3" stroke-linejoin="round" d="M72 18v64.7c-7.2-3.8-16.5-4.1-25.3-.8-15.1 5.7-23.7 19.7-19.1 31.3 4.5 11.6 20.4 16.4 35.5 10.7 12.8-4.9 20.9-15.7 19.9-26V45.2l30-7.1v35.4c-7-3.6-16.1-3.9-24.7-.6-14.7 5.5-23 19.1-18.6 30.4 4.4 11.3 19.8 15.9 34.4 10.4 12.4-4.7 20.2-15.1 19.4-25V16L72 18z"/>
<path fill="#fff8bd" opacity=".35" d="M79 25l37-5.8v9.3L79 36z"/>
</svg>