<svg xmlns="http://www.w3.org/2000/svg" viewBox="0 0 320 320">
<defs>
 <linearGradient id="bg" x1="0" y1="0" x2="1" y2="1"><stop stop-color="#252525"/><stop offset=".48" stop-color="#050505"/><stop offset="1" stop-color="#2b0508"/></linearGradient>
 <linearGradient id="gold" x1="0" y1="0" x2="1" y2="1"><stop stop-color="#fff1a3"/><stop offset=".2" stop-color="#d9a42d"/><stop offset=".52" stop-color="#7a470c"/><stop offset=".76" stop-color="#f2c655"/><stop offset="1" stop-color="#4c2705"/></linearGradient>
 <filter id="shadow"><feDropShadow dx="0" dy="10" stdDeviation="7" flood-color="#000" flood-opacity=".9"/></filter>
</defs>
<rect x="8" y="8" width="304" height="304" rx="54" fill="url(#bg)" stroke="#6f171c" stroke-width="9"/>
<rect x="20" y="20" width="280" height="280" rx="43" fill="none" stroke="#c38e24" stroke-opacity=".55" stroke-width="4"/>
<path filter="url(#shadow)" d="M189 61v137.5c-12-6.4-27.5-7-42.3-1.4-25.2 9.5-39.5 32.8-31.9 52.1 7.5 19.3 34 27.3 59.2 17.8 21.4-8.1 34.8-26.1 33.2-43.2V112l63-15v74.5c-11.7-6-26.8-6.4-41.2-1-24.4 9.2-38.3 31.9-31 50.6 7.3 18.8 33 26.5 57.4 17.3 20.6-7.8 33.6-25.1 32.3-41.7V50L189 61z" fill="url(#gold)" stroke="#2d1604" stroke-width="7" stroke-linejoin="round"/>
<path d="M201 72l74-12v22l-74 15z" fill="#fff3a5" opacity=".32"/>
</svg>