<svg xmlns="http://www.w3.org/2000/svg" viewBox="0 0 64 64">
<defs>
 <linearGradient id="g" x1="0" y1="0" x2="1" y2="1"><stop stop-color="#fff0a5"/><stop offset=".35" stop-color="#d59a2c"/><stop offset=".72" stop-color="#7a430f"/><stop offset="1" stop-color="#e1b44c"/></linearGradient>
 <linearGradient id="b" x1="0" y1="0" x2="0" y2="1"><stop stop-color="#1a1713"/><stop offset="1" stop-color="#050505"/></linearGradient>
 <filter id="sh"><feDropShadow dx="0" dy="2" stdDeviation="1.5" flood-color="#000" flood-opacity=".8"/></filter>
</defs>
<rect x="2" y="2" width="60" height="60" rx="13" fill="url(#b)" stroke="#8e5d1c" stroke-width="2"/>
<rect x="6" y="6" width="52" height="52" rx="10" fill="none" stroke="#d5a545" stroke-opacity=".42"/>
<g fill="url(#g)" stroke="#3b2108" stroke-width=".8" filter="url(#sh)"><path d="m11 11 20 20-6 6-5-5-5 5-6-6 6-6-4-4V11Zm42 0v10l-4 4 6 6-6 6-5-5-5 5-6-6 20-20ZM23 39l6 6-12 12H8v-9l15-9Zm18 0 15 9v9h-9L35 45l6-6Z"/></g>
</svg>